<svg xmlns="http://www.w3.org/2000/svg" version="1.1" xmlns:xlink="http://www.w3.org/1999/xlink" width="512" height="512"><svg xmlns="http://www.w3.org/2000/svg" version="1.1" xmlns:xlink="http://www.w3.org/1999/xlink" width="512" height="512"><svg width="512" height="512" viewBox="0 0 512 512" fill="none" xmlns="http://www.w3.org/2000/svg">
<path d="M294.993 422.118C218.348 440.993 138.549 403.867 102.789 332.657C96.0216 319.208 88.6134 297.455 86.478 284.794C85.476 278.826 85.3938 278.777 60.738 268.287C47.1206 262.499 36 257.09 36 256.284C36 255.462 45.8558 250.464 57.8962 245.186C80.2031 235.403 87.2007 230.24 87.2007 223.581C87.2007 217.07 94.8225 194.051 101.179 181.374C118.099 147.602 140.8 123.449 171.27 106.793C239.965 69.2563 321.817 80.9466 376.993 136.175C400.861 160.049 413.312 184.071 423.447 225.751C424.761 231.161 425.878 231.868 450.682 242.95C464.907 249.313 476.29 255.281 475.994 256.218C475.337 258.208 474.171 258.783 445.836 271.082L424.186 280.454L421.426 293.032C407.743 355.396 357.462 406.728 294.993 422.118ZM245.714 335.123C250.232 337.31 254.847 339.152 255.981 339.201C257.098 339.25 269.664 334.153 283.905 327.873C298.131 321.575 324.938 309.852 343.451 301.812L377.125 287.179L379.276 275.011C381.461 262.746 380.936 237.951 378.307 228.53C377.157 224.337 374.168 222.529 352.419 212.795C338.901 206.744 311.83 194.627 292.25 185.863L256.654 169.931L224.081 184.482C206.16 192.489 179.303 204.459 164.404 211.052C149.506 217.662 136.381 223.91 135.264 224.913C131.305 228.497 129.17 252.683 131.355 269.158C132.455 277.445 134.229 285.09 135.33 286.143C136.414 287.195 145.071 291.355 154.548 295.4C191.524 311.135 237.895 331.342 245.714 335.123ZM274.05 300.595C270.797 301.96 264.194 303.44 259.381 303.9C221.946 307.452 195.072 266.922 212.188 232.673C217.428 222.15 222.405 217.415 235.037 210.904C246.043 205.232 265.574 205.445 276.924 211.397C286.911 216.61 294.895 224.255 299.625 233.167C302.516 238.56 303.19 242.621 303.19 254.623C303.206 267.974 302.73 270.293 298.328 278.234C293.022 287.82 283.396 296.682 274.05 300.595ZM223.112 151.779C242.725 156.596 270.994 156.3 290.575 151.039C306.705 146.715 312.241 144.429 312.241 142.111C312.241 140.056 298.081 125.587 287.601 116.922C278.863 109.704 258.642 97.6023 255.307 97.6023C251.266 97.6023 223.079 118.188 212.385 128.957C205.864 135.501 200.542 141.486 200.542 142.209C200.542 144.561 209.938 148.54 223.112 151.779ZM244.893 406.843C250.757 410.378 256.391 413.272 257.41 413.272C264.457 413.322 312.241 373.828 312.241 367.975C312.241 365.492 306.771 363.321 289.786 359.096C265.18 352.947 228.434 355.248 207.326 364.242L200.164 367.3L205.848 374.255C213.617 383.759 231.966 399.083 244.893 406.843ZM143.034 367.662C148.98 373.762 154.466 378.76 155.222 378.76C156.799 378.76 176.97 364.571 178.186 362.598C178.629 361.891 174.95 353.21 169.989 343.312C165.028 333.413 160.183 322.2 159.214 318.385C158.261 314.571 156.635 310.773 155.6 309.934C153.645 308.372 103.036 286.685 101.327 286.685C99.3726 286.685 100.407 292.9 104.218 304.065C112.415 328.168 125.622 349.823 143.034 367.662ZM100.342 221.92C100.342 225.34 103.726 224.732 116.177 219.076C156.93 200.562 156.355 200.907 158.606 192.966C160.692 185.6 163.452 179.237 171.468 163.403C175.804 154.82 178.629 147.57 177.726 147.257C176.839 146.961 172.913 144.298 169.02 141.338C156.208 131.572 156.093 131.572 147.551 138.888C137.334 147.619 121.302 169.174 113.581 184.564C107.619 196.435 100.342 216.955 100.342 221.92ZM380.131 211.512C404.277 222.644 409.156 224.107 409.156 220.309C409.156 214.752 399.333 189.102 392.894 177.823C384.812 163.683 365.823 140.631 359.483 137.277C355.54 135.189 354.456 135.485 344.814 141.239C339.098 144.676 334.203 147.635 333.94 147.816C333.677 148.013 336.075 152.617 339.262 158.076C345.011 167.892 353.701 188.099 355.77 196.468C356.69 200.151 360.353 202.42 380.131 211.512ZM351.664 372.217C353.931 373.976 356.575 375.423 357.577 375.439C362.784 375.538 388.229 343.394 397.329 325.209C402.996 313.897 410.224 290.5 408.565 288.839C407.973 288.231 399.169 291.322 389.017 295.696C354.686 310.493 357.052 308.898 354.128 318.977C352.699 323.926 347.853 335.123 343.385 343.871C338.901 352.618 335.238 360.608 335.238 361.628C335.238 362.631 338.014 364.719 341.397 366.265C344.781 367.794 349.397 370.474 351.664 372.217ZM393.091 256.185L392.992 279.961L400.663 276.886C420.211 269.059 444.259 257.731 444.801 256.103C445.129 255.1 441.877 252.765 437.54 250.891C433.22 249.017 422.018 244.101 412.638 239.957C403.259 235.814 395.046 232.427 394.389 232.427C393.732 232.427 393.14 243.114 393.091 256.185ZM91.4387 268.04C104.021 273.614 115.224 278.234 116.357 278.316C117.901 278.431 118.411 273.022 118.411 256.366C118.411 244.216 117.852 233.956 117.179 233.594C115.027 232.41 67.3578 254.245 67.982 256.12C68.3105 257.106 78.8726 262.466 91.4387 268.04ZM310.927 352.371C320.421 356.597 321.341 356.498 325.3 350.908C331.919 341.634 341.857 317.925 339.147 317.925C338.687 317.925 326.203 323.104 311.419 329.434C296.636 335.765 283.675 340.944 282.641 340.944C281.606 340.944 281.047 341.815 281.409 342.884C281.754 343.953 286.961 345.811 292.956 347.027C298.968 348.244 307.05 350.645 310.927 352.371ZM185.101 345.465C188.255 351.121 191.36 355.725 192 355.725C192.625 355.709 199.425 353.506 207.113 350.809C214.8 348.113 222.915 345.893 225.181 345.876C227.448 345.844 230.372 345.137 231.703 344.298C233.723 343.016 233.592 342.588 230.881 341.717C229.107 341.141 217.675 336.34 205.47 331.046L205.339 330.996C180.288 320.128 175.426 318.024 174.49 319.158C174.26 319.438 174.26 319.898 174.26 320.474V320.49C174.26 323.943 178.35 333.381 185.101 345.465ZM172.617 190.105C172.617 192.949 179.812 190.582 203.614 179.911C231.67 167.3 235.267 165.015 227.005 165.015C224.032 165.015 214.997 162.729 206.915 159.918C195.434 155.939 191.721 155.248 189.914 156.761C187.664 158.619 172.617 187.639 172.617 190.105ZM311.502 180.7C325.907 187.261 338.326 192.029 339.098 191.322C342.022 188.576 324.79 155.149 320.47 155.149C319.107 155.149 314.048 156.646 309.218 158.487C304.405 160.329 296.784 162.614 292.299 163.568C287.815 164.538 284.398 166.1 284.727 167.053C285.039 167.991 297.079 174.14 311.502 180.7ZM200.493 404.558C213.437 409.491 221.896 411.283 221.896 409.112C221.896 408.619 214.061 400.415 204.484 390.878L187.056 373.548L177.792 379.32C172.683 382.476 168.511 385.978 168.511 387.064C168.511 389.826 183.804 398.195 200.493 404.558ZM287.601 410.148C287.601 410.214 287.601 410.28 287.601 410.346C287.601 410.74 287.601 411.036 287.733 411.233C288.242 411.858 290.476 411.118 300.299 407.83L301.794 407.32C321.505 400.727 345.093 388.034 345.093 384.022C345.093 382.591 329.686 373.828 327.156 373.828C326.154 373.828 320.438 379.024 314.458 385.354C308.479 391.7 299.987 399.527 295.601 402.766C291.199 405.988 287.601 409.31 287.601 410.148ZM177.036 131.177C181.373 134.367 185.2 136.997 185.512 137.03C186.974 137.129 218.857 103.867 218.052 103.078C214.997 100.003 171.27 118.401 169.726 123.4C169.398 124.485 172.683 127.987 177.036 131.177ZM309.777 120.358C318.811 129.5 326.614 136.997 327.107 137.03C329.768 137.145 343.599 126.82 343.089 125.093C342.12 121.92 308.923 106.004 300.742 104.82L293.351 103.735L309.777 120.358Z" fill="#EF0808"></path>
<path d="M207.277 350.76C214.685 347.998 222.307 344.874 223.982 343.739C227.58 341.289 227.465 341.158 217.79 336.768C184.28 321.592 175.065 318.073 174.589 320.276C174.194 322.003 175.443 326.031 178.071 331.802C175.623 326.475 174.26 322.48 174.26 320.49V320.474C174.26 319.898 174.26 319.438 174.49 319.158C175.426 318.024 180.288 320.128 205.339 330.996L205.47 331.046C217.675 336.34 229.107 341.141 230.881 341.717C233.592 342.588 233.723 343.016 231.703 344.298C230.372 345.137 227.448 345.844 225.181 345.876C222.931 345.893 214.899 348.096 207.277 350.76ZM287.601 410.148C287.601 409.31 291.199 405.988 295.601 402.766C298.492 400.628 303.173 396.501 307.74 392.111C300.595 399.642 294.172 406.893 294.172 407.929C294.172 409.063 295.19 409.31 298.541 408.405C290.197 411.201 288.209 411.825 287.733 411.233C287.601 411.036 287.601 410.74 287.601 410.346C287.601 410.28 287.601 410.214 287.601 410.148ZM188.584 186.471C203.942 179.944 226.791 169.026 226.397 167.843C226.134 167.053 219.268 164.143 210.792 161.216C217.708 163.387 224.508 165.015 227.005 165.015C235.267 165.015 231.67 167.3 203.614 179.911C197.585 182.607 192.625 184.778 188.584 186.471ZM331.032 394.611C338.966 390.122 345.093 385.748 345.093 384.022C345.093 386.011 339.295 390.138 331.032 394.611ZM337.044 378.366C332.593 375.965 327.747 373.828 326.581 374.124C326.482 374.157 326.335 374.222 326.17 374.321C326.63 374.009 326.975 373.828 327.156 373.828C328.421 373.828 332.889 376.015 337.044 378.366ZM204.764 159.194C195.023 156.021 191.458 155.495 189.898 156.777C189.898 156.761 189.898 156.761 189.914 156.761C191.606 155.347 194.957 155.856 204.764 159.194ZM172.617 190.105C172.617 190.598 173.274 191.026 174.211 191.223C173.094 191.223 172.617 190.845 172.617 190.105C172.617 188.905 176.165 181.457 180.075 173.893C176.165 181.457 172.617 188.921 172.617 190.105Z" fill="#EF0808"></path>
</svg></svg><style>@media (prefers-color-scheme: light) { :root { filter: none; } }
@media (prefers-color-scheme: dark) { :root { filter: invert(100%); } }
</style></svg>