<svg width="268" height="208" viewBox="0 0 268 208" fill="none" xmlns="http://www.w3.org/2000/svg">
<path d="M157.67 205.035C111.01 216.515 62.43 193.935 40.66 150.625C36.54 142.445 32.03 129.215 30.73 121.515C30.12 117.885 30.07 117.855 15.06 111.475C6.77 107.955 0 104.665 0 104.175C0 103.675 6 100.635 13.33 97.4247C26.91 91.4747 31.17 88.3347 31.17 84.2847C31.17 80.3247 35.81 66.3247 39.68 58.6147C49.98 38.0747 63.8 23.3847 82.35 13.2547C124.17 -9.57528 174 -2.46528 207.59 31.1247C222.12 45.6447 229.7 60.2547 235.87 85.6047C236.67 88.8947 237.35 89.3247 252.45 96.0647C261.11 99.9347 268.04 103.565 267.86 104.135C267.46 105.345 266.75 105.695 249.5 113.175L236.32 118.875L234.64 126.525C226.31 164.455 195.7 195.675 157.67 205.035ZM127.67 152.125C130.42 153.455 133.23 154.575 133.92 154.605C134.6 154.635 142.25 151.535 150.92 147.715C159.58 143.885 175.9 136.755 187.17 131.865L207.67 122.965L208.98 115.565C210.31 108.105 209.99 93.0247 208.39 87.2947C207.69 84.7447 205.87 83.6447 192.63 77.7247C184.4 74.0447 167.92 66.6747 156 61.3447L134.33 51.6547L114.5 60.5047C103.59 65.3747 87.24 72.6547 78.17 76.6647C69.1 80.6847 61.11 84.4847 60.43 85.0947C58.02 87.2747 56.72 101.985 58.05 112.005C58.72 117.045 59.8 121.695 60.47 122.335C61.13 122.975 66.4 125.505 72.17 127.965C94.68 137.535 122.91 149.825 127.67 152.125ZM144.92 131.125C142.94 131.955 138.92 132.855 135.99 133.135C113.2 135.295 96.84 110.645 107.26 89.8147C110.45 83.4147 113.48 80.5347 121.17 76.5747C127.87 73.1247 139.76 73.2547 146.67 76.8747C152.75 80.0447 157.61 84.6947 160.49 90.1147C162.25 93.3947 162.66 95.8647 162.66 103.165C162.67 111.285 162.38 112.695 159.7 117.525C156.47 123.355 150.61 128.745 144.92 131.125ZM113.91 40.6147C125.85 43.5447 143.06 43.3647 154.98 40.1647C164.8 37.5347 168.17 36.1447 168.17 34.7347C168.17 33.4847 159.55 24.6847 153.17 19.4147C147.85 15.0247 135.54 7.66473 133.51 7.66473C131.05 7.66473 113.89 20.1847 107.38 26.7347C103.41 30.7147 100.17 34.3547 100.17 34.7947C100.17 36.2247 105.89 38.6447 113.91 40.6147ZM127.17 195.745C130.74 197.895 134.17 199.655 134.79 199.655C139.08 199.685 168.17 175.665 168.17 172.105C168.17 170.595 164.84 169.275 154.5 166.705C139.52 162.965 117.15 164.365 104.3 169.835L99.94 171.695L103.4 175.925C108.13 181.705 119.3 191.025 127.17 195.745ZM65.16 171.915C68.78 175.625 72.12 178.665 72.58 178.665C73.54 178.665 85.82 170.035 86.56 168.835C86.83 168.405 84.59 163.125 81.57 157.105C78.55 151.085 75.6 144.265 75.01 141.945C74.43 139.625 73.44 137.315 72.81 136.805C71.62 135.855 40.81 122.665 39.77 122.665C38.58 122.665 39.21 126.445 41.53 133.235C46.52 147.895 54.56 161.065 65.16 171.915ZM39.17 83.2747C39.17 85.3547 41.23 84.9847 48.81 81.5447C73.62 70.2847 73.27 70.4947 74.64 65.6647C75.91 61.1847 77.59 57.3147 82.47 47.6847C85.11 42.4647 86.83 38.0547 86.28 37.8647C85.74 37.6847 83.35 36.0647 80.98 34.2647C73.18 28.3247 73.11 28.3247 67.91 32.7747C61.69 38.0847 51.93 51.1947 47.23 60.5547C43.6 67.7747 39.17 80.2547 39.17 83.2747ZM209.5 76.9447C224.2 83.7147 227.17 84.6047 227.17 82.2947C227.17 78.9147 221.19 63.3147 217.27 56.4547C212.35 47.8547 200.79 33.8347 196.93 31.7947C194.53 30.5247 193.87 30.7047 188 34.2047C184.52 36.2947 181.54 38.0947 181.38 38.2047C181.22 38.3247 182.68 41.1247 184.62 44.4447C188.12 50.4147 193.41 62.7047 194.67 67.7947C195.23 70.0347 197.46 71.4147 209.5 76.9447ZM192.17 174.685C193.55 175.755 195.16 176.635 195.77 176.645C198.94 176.705 214.43 157.155 219.97 146.095C223.42 139.215 227.82 124.985 226.81 123.975C226.45 123.605 221.09 125.485 214.91 128.145C194.01 137.145 195.45 136.175 193.67 142.305C192.8 145.315 189.85 152.125 187.13 157.445C184.4 162.765 182.17 167.625 182.17 168.245C182.17 168.855 183.86 170.125 185.92 171.065C187.98 171.995 190.79 173.625 192.17 174.685ZM217.39 104.115L217.33 118.575L222 116.705C233.9 111.945 248.54 105.055 248.87 104.065C249.07 103.455 247.09 102.035 244.45 100.895C241.82 99.7547 235 96.7647 229.29 94.2447C223.58 91.7247 218.58 89.6647 218.18 89.6647C217.78 89.6647 217.42 96.1647 217.39 104.115ZM33.75 111.325C41.41 114.715 48.23 117.525 48.92 117.575C49.86 117.645 50.17 114.355 50.17 104.225C50.17 96.8347 49.83 90.5947 49.42 90.3747C48.11 89.6547 19.09 102.935 19.47 104.075C19.67 104.675 26.1 107.935 33.75 111.325ZM167.37 162.615C173.15 165.185 173.71 165.125 176.12 161.725C180.15 156.085 186.2 141.665 184.55 141.665C184.27 141.665 176.67 144.815 167.67 148.665C158.67 152.515 150.78 155.665 150.15 155.665C149.52 155.665 149.18 156.195 149.4 156.845C149.61 157.495 152.78 158.625 156.43 159.365C160.09 160.105 165.01 161.565 167.37 162.615ZM90.77 158.415C92.69 161.855 94.58 164.655 94.97 164.655C95.35 164.645 99.49 163.305 104.17 161.665C108.85 160.025 113.79 158.675 115.17 158.665C116.55 158.645 118.33 158.215 119.14 157.705C120.37 156.925 120.29 156.665 118.64 156.135C117.56 155.785 110.6 152.865 103.17 149.645L103.09 149.615C87.84 143.005 84.88 141.725 84.31 142.415C84.17 142.585 84.17 142.865 84.17 143.215V143.225C84.17 145.325 86.66 151.065 90.77 158.415ZM83.17 63.9247C83.17 65.6547 87.55 64.2147 102.04 57.7247C119.12 50.0547 121.31 48.6647 116.28 48.6647C114.47 48.6647 108.97 47.2747 104.05 45.5647C97.06 43.1447 94.8 42.7247 93.7 43.6447C92.33 44.7747 83.17 62.4247 83.17 63.9247ZM167.72 58.2047C176.49 62.1947 184.05 65.0947 184.52 64.6647C186.3 62.9947 175.81 42.6647 173.18 42.6647C172.35 42.6647 169.27 43.5747 166.33 44.6947C163.4 45.8147 158.76 47.2047 156.03 47.7847C153.3 48.3747 151.22 49.3247 151.42 49.9047C151.61 50.4747 158.94 54.2147 167.72 58.2047ZM100.14 194.355C108.02 197.355 113.17 198.445 113.17 197.125C113.17 196.825 108.4 191.835 102.57 186.035L91.96 175.495L86.32 179.005C83.21 180.925 80.67 183.055 80.67 183.715C80.67 185.395 89.98 190.485 100.14 194.355ZM153.17 197.755C153.17 197.795 153.17 197.835 153.17 197.875C153.17 198.115 153.17 198.295 153.25 198.415C153.56 198.795 154.92 198.345 160.9 196.345L161.81 196.035C173.81 192.025 188.17 184.305 188.17 181.865C188.17 180.995 178.79 175.665 177.25 175.665C176.64 175.665 173.16 178.825 169.52 182.675C165.88 186.535 160.71 191.295 158.04 193.265C155.36 195.225 153.17 197.245 153.17 197.755ZM85.86 28.0847C88.5 30.0247 90.83 31.6247 91.02 31.6447C91.91 31.7047 111.32 11.4747 110.83 10.9947C108.97 9.12473 82.35 20.3147 81.41 23.3547C81.21 24.0147 83.21 26.1447 85.86 28.0847ZM166.67 21.5047C172.17 27.0647 176.92 31.6247 177.22 31.6447C178.84 31.7147 187.26 25.4347 186.95 24.3847C186.36 22.4547 166.15 12.7747 161.17 12.0547L156.67 11.3947L166.67 21.5047Z" fill="#EF0808"/>
<path d="M104.27 161.635C108.78 159.955 113.42 158.055 114.44 157.365C116.63 155.875 116.56 155.795 110.67 153.125C90.27 143.895 84.66 141.755 84.37 143.095C84.13 144.145 84.89 146.595 86.49 150.105C85 146.865 84.17 144.435 84.17 143.225V143.215C84.17 142.865 84.17 142.585 84.31 142.415C84.88 141.725 87.84 143.005 103.09 149.615L103.17 149.645C110.6 152.865 117.56 155.785 118.64 156.135C120.29 156.665 120.37 156.925 119.14 157.705C118.33 158.215 116.55 158.645 115.17 158.665C113.8 158.675 108.91 160.015 104.27 161.635ZM153.17 197.755C153.17 197.245 155.36 195.225 158.04 193.265C159.8 191.965 162.65 189.455 165.43 186.785C161.08 191.365 157.17 195.775 157.17 196.405C157.17 197.095 157.79 197.245 159.83 196.695C154.75 198.395 153.54 198.775 153.25 198.415C153.17 198.295 153.17 198.115 153.17 197.875C153.17 197.835 153.17 197.795 153.17 197.755ZM92.89 61.7147C102.24 57.7447 116.15 51.1047 115.91 50.3847C115.75 49.9047 111.57 48.1347 106.41 46.3547C110.62 47.6747 114.76 48.6647 116.28 48.6647C121.31 48.6647 119.12 50.0547 102.04 57.7247C98.37 59.3647 95.35 60.6847 92.89 61.7147ZM179.61 188.305C184.44 185.575 188.17 182.915 188.17 181.865C188.17 183.075 184.64 185.585 179.61 188.305ZM183.27 178.425C180.56 176.965 177.61 175.665 176.9 175.845C176.84 175.865 176.75 175.905 176.65 175.965C176.93 175.775 177.14 175.665 177.25 175.665C178.02 175.665 180.74 176.995 183.27 178.425ZM102.74 45.1247C96.81 43.1947 94.64 42.8747 93.69 43.6547C93.69 43.6447 93.69 43.6447 93.7 43.6447C94.73 42.7847 96.77 43.0947 102.74 45.1247ZM83.17 63.9247C83.17 64.2247 83.57 64.4847 84.14 64.6047C83.46 64.6047 83.17 64.3747 83.17 63.9247C83.17 63.1947 85.33 58.6647 87.71 54.0647C85.33 58.6647 83.17 63.2047 83.17 63.9247Z" fill="#EF0808"/>
</svg>
